<!-- <?xml version="1.0" standalone="no"?>
<!DOCTYPE svg PUBLIC "-//W3C//DTD SVG 20010904//EN"
 "http://www.w3.org/TR/2001/REC-SVG-20010904/DTD/svg10.dtd"> -->
<svg version="1.0" xmlns="http://www.w3.org/2000/svg"
 width="490.000000pt" height="433.000000pt" viewBox="0 0 490.000000 433.000000"
 preserveAspectRatio="xMidYMid meet">

<g transform="translate(0.000000,433.000000) scale(0.100000,-0.100000)"
fill="#000000" stroke="none">
<path d="M3442 3920 c-262 -69 -479 -290 -542 -551 -115 -480 244 -939 735
-939 299 0 587 194 699 469 127 315 29 686 -235 886 -77 58 -200 117 -290 139
-92 23 -272 21 -367 -4z"/>
<path d="M15 3836 c-12 -8 -16 -19 -11 -31 6 -16 72 -123 336 -550 48 -77 183
-295 300 -485 117 -190 263 -426 325 -525 62 -99 248 -400 415 -670 166 -269
368 -596 448 -725 80 -129 197 -318 260 -420 288 -464 267 -435 297 -428 17 3
704 1103 705 1127 0 12 -81 146 -505 831 -56 91 -194 314 -305 495 -112 182
-224 364 -250 405 -26 41 -73 118 -105 170 -32 52 -86 140 -120 195 -34 55
-129 208 -210 340 -82 132 -157 250 -168 263 l-20 22 -687 0 c-562 0 -690 -2
-705 -14z"/>
</g>
</svg>
