<!-- <?xml version="1.0" standalone="no"?>
<!DOCTYPE svg PUBLIC "-//W3C//DTD SVG 20010904//EN"
 "http://www.w3.org/TR/2001/REC-SVG-20010904/DTD/svg10.dtd"> -->
<svg version="1.0"
    xmlns="http://www.w3.org/2000/svg" width="1450.000000pt" height="1450.000000pt" viewBox="0 0 1450.000000 1450.000000" preserveAspectRatio="xMidYMid meet">

    <g transform="translate(0.000000,1450.000000) scale(0.100000,-0.100000)" fill="#FF3D00" stroke="none">
        <path d="M6220 13395 l-1055 -1055 -1502 0 -1503 0 0 -1502 0 -1503 -1057
-1057 -1058 -1058 1058 -1058 1057 -1057 0 -1503 0 -1502 1503 0 1502 0 1050
-1050 c577 -577 1057 -1050 1065 -1050 8 0 488 473 1065 1050 l1050 1050 1502
0 1503 0 0 1503 0 1502 1050 1050 c578 577 1050 1057 1050 1065 0 8 -472 488
-1050 1065 l-1050 1050 0 1502 0 1503 -1503 0 -1502 0 -1055 1055 c-580 580
-1057 1055 -1060 1055 -3 0 -480 -475 -1060 -1055z m1418 -2870 c576 -60 1142
-279 1613 -623 763 -559 1239 -1382 1351 -2337 16 -142 16 -568 0 -710 -58
-492 -207 -934 -456 -1353 -225 -377 -561 -742 -922 -1000 -1257 -897 -2966
-814 -4126 202 -538 470 -906 1090 -1063 1790 -58 261 -69 374 -69 721 0 346
10 454 71 725 136 612 450 1178 903 1630 541 540 1233 871 1995 955 170 18
524 18 703 0z"/>
    </g>
</svg>
